Normalized EMG Linear Envelopes
nRows=131
nColumns=4

endheader
time	 med_gas_r	  soleus_r	 tib_ant_r	
2.8629	  0.008345	  0.010075	  0.004236	
2.93448	  0.008598	  0.010195	  0.003771	
3.00605	  0.008762	  0.010243	  0.003630	
3.07762	  0.008823	  0.010220	  0.004078	
3.14919	  0.008855	  0.010313	  0.005100	
3.22077	  0.008938	  0.010669	  0.006082	
3.29234	  0.009088	  0.011119	  0.006272	
3.36391	  0.009304	  0.011356	  0.005646	
3.43548	  0.009636	  0.011245	  0.004766	
3.50706	  0.010062	  0.010894	  0.004018	
3.57863	  0.010362	  0.010522	  0.003481	
3.6502	  0.010392	  0.010268	  0.003186	
3.72177	  0.010311	  0.010185	  0.003230	
3.79335	  0.010358	  0.010254	  0.003756	
3.86492	  0.010578	  0.010333	  0.004817	
3.93649	  0.010770	  0.010278	  0.006072	
4.00806	  0.010613	  0.010123	  0.006773	
4.07964	  0.010049	  0.009973	  0.006436	
4.15121	  0.009462	  0.009870	  0.005431	
4.22278	  0.009250	  0.009846	  0.004534	
4.29435	  0.009413	  0.009881	  0.004134	
4.36593	  0.009735	  0.009893	  0.004094	
4.4375	  0.010018	  0.009907	  0.004157	
4.50907	  0.010079	  0.009965	  0.004269	
4.58065	  0.009929	  0.009888	  0.004558	
4.65222	  0.009979	  0.009505	  0.005082	
4.72379	  0.010634	  0.009003	  0.005566	
4.79536	  0.011601	  0.008859	  0.005547	
4.86694	  0.012107	  0.009695	  0.004953	
4.93851	  0.011897	  0.012330	  0.004238	
5.01008	  0.011428	  0.017102	  0.003903	
5.08165	  0.010983	  0.022198	  0.004143	
5.15323	  0.010424	  0.024351	  0.004748	
5.2248	  0.010023	  0.023120	  0.005155	
5.29637	  0.010495	  0.022032	  0.004996	
5.36794	  0.012136	  0.024771	  0.004871	
5.43952	  0.015125	  0.034807	  0.006310	
5.51109	  0.020197	  0.057177	  0.010457	
5.58266	  0.027610	  0.093473	  0.016391	
5.65423	  0.036163	  0.137785	  0.021329	
5.72581	  0.043752	  0.179525	  0.023299	
5.79738	  0.047971	  0.203722	  0.022799	
5.86895	  0.047704	  0.199365	  0.021301	
5.94052	  0.045663	  0.181050	  0.019820	
6.0121	  0.047807	  0.186522	  0.019496	
6.08367	  0.058396	  0.238841	  0.021595	
6.15524	  0.075194	  0.321750	  0.025880	
6.22681	  0.091747	  0.400894	  0.030397	
6.29839	  0.104343	  0.456128	  0.033608	
6.36996	  0.112717	  0.480773	  0.035421	
6.44153	  0.117344	  0.472995	  0.036168	
6.5131	  0.120628	  0.449866	  0.036104	
6.58468	  0.126554	  0.446890	  0.035692	
6.65625	  0.137398	  0.483432	  0.035429	
6.72782	  0.151628	  0.538469	  0.035405	
6.7994	  0.164929	  0.574229	  0.035765	
6.87097	  0.174687	  0.578430	  0.037478	
6.94254	  0.180937	  0.565094	  0.040941	
7.01411	  0.183699	  0.546629	  0.044298	
7.08569	  0.184093	  0.529572	  0.045290	
7.15726	  0.184237	  0.523657	  0.044073	
7.22883	  0.185172	  0.536319	  0.042593	
7.3004	  0.188412	  0.564391	  0.041919	
7.37198	  0.194771	  0.597949	  0.041585	
7.44355	  0.202493	  0.628683	  0.041302	
7.51512	  0.212229	  0.652514	  0.041693	
7.58669	  0.228151	  0.667554	  0.042958	
7.65827	  0.250902	  0.671088	  0.044219	
7.72984	  0.276138	  0.664457	  0.044910	
7.80141	  0.301169	  0.660991	  0.046198	
7.87298	  0.325396	  0.667520	  0.049634	
7.94456	  0.344583	  0.666574	  0.054361	
8.01613	  0.355734	  0.647270	  0.057899	
8.0877	  0.363736	  0.628106	  0.059164	
8.15927	  0.375395	  0.627787	  0.058149	
8.23085	  0.391643	  0.643948	  0.054711	
8.30242	  0.403049	  0.666700	  0.050227	
8.37399	  0.396287	  0.694998	  0.047739	
8.44556	  0.372493	  0.732691	  0.048586	
8.51714	  0.348505	  0.770659	  0.050915	
8.58871	  0.338733	  0.789815	  0.052144	
8.66028	  0.348865	  0.786350	  0.051435	
8.73185	  0.380484	  0.774929	  0.049788	
8.80343	  0.425051	  0.767544	  0.048398	
8.875	  0.460916	  0.768042	  0.047419	
8.94657	  0.471574	  0.775855	  0.046923	
9.01815	  0.460571	  0.780085	  0.047575	
9.08972	  0.441262	  0.770729	  0.049352	
9.16129	  0.420573	  0.754162	  0.051328	
9.23286	  0.399114	  0.738655	  0.053079	
9.30444	  0.380290	  0.723880	  0.054506	
9.37601	  0.372150	  0.713026	  0.054717	
9.44758	  0.381774	  0.715391	  0.053530	
9.51915	  0.405057	  0.732207	  0.052496	
9.59073	  0.425374	  0.748076	  0.052387	
9.6623	  0.433640	  0.747324	  0.053108	
9.73387	  0.436297	  0.739014	  0.055825	
9.80544	  0.437676	  0.750904	  0.060941	
9.87702	  0.435627	  0.793132	  0.065561	
9.94859	  0.431060	  0.836528	  0.066256	
10.0202	  0.427221	  0.840597	  0.063292	
10.0917	  0.425592	  0.804748	  0.059867	
10.1633	  0.426688	  0.769291	  0.057810	
10.2349	  0.429915	  0.759309	  0.056308	
10.3065	  0.431314	  0.759519	  0.054400	
10.378	  0.423895	  0.745985	  0.052263	
10.4496	  0.401393	  0.705543	  0.049979	
10.5212	  0.364986	  0.634513	  0.047387	
10.5927	  0.325504	  0.549284	  0.045249	
10.6643	  0.294395	  0.485611	  0.044443	
10.7359	  0.276733	  0.470412	  0.044747	
10.8075	  0.271807	  0.494198	  0.045372	
10.879	  0.272131	  0.515041	  0.045073	
10.9506	  0.265854	  0.498768	  0.042416	
11.0222	  0.246910	  0.450606	  0.037656	
11.0937	  0.221531	  0.394472	  0.032868	
11.1653	  0.202673	  0.340984	  0.029576	
11.2369	  0.197168	  0.291250	  0.027713	
11.3085	  0.198499	  0.247996	  0.026383	
11.38	  0.194629	  0.214154	  0.024841	
11.4516	  0.181533	  0.191207	  0.023051	
11.5232	  0.164073	  0.177988	  0.021371	
11.5948	  0.146827	  0.169748	  0.020149	
11.6663	  0.130290	  0.160584	  0.019451	
11.7379	  0.113445	  0.147578	  0.018758	
11.8095	  0.095571	  0.132397	  0.017594	
11.881	  0.076454	  0.118411	  0.016158	
11.9526	  0.057169	  0.106113	  0.014616	
12.0242	  0.040325	  0.092207	  0.012660	
12.0958	  0.027913	  0.074511	  0.010080	
12.1673	  0.018859	  0.054401	  0.007084	
